<?xml version="1.0" encoding="UTF-8"?> <svg xmlns="http://www.w3.org/2000/svg" width="33" height="24" viewBox="0 0 33 24" fill="none"> <g clip-path="url(#clip0_6927_27460)"> <path d="M27.4904 2.00996C25.4099 1.05745 23.2135 0.381713 20.9574 0C20.6487 0.551901 20.3693 1.11973 20.1205 1.70112C17.7173 1.33898 15.2734 1.33898 12.8702 1.70112C12.6213 1.11979 12.342 0.551968 12.0334 0C9.7758 0.384937 7.57798 1.06228 5.49538 2.01494C1.36089 8.132 0.240089 14.0971 0.800487 19.9776C3.22175 21.7665 5.93184 23.127 8.81294 24C9.46168 23.1275 10.0357 22.2018 10.529 21.2329C9.5921 20.883 8.68782 20.4512 7.82664 19.9427C8.05329 19.7783 8.27496 19.609 8.48915 19.4446C10.995 20.623 13.73 21.234 16.4991 21.234C19.2682 21.234 22.0032 20.623 24.5091 19.4446C24.7258 19.6214 24.9474 19.7908 25.1716 19.9427C24.3087 20.4521 23.4028 20.8846 22.4642 21.2354C22.9569 22.2039 23.531 23.1287 24.1803 24C27.0639 23.1305 29.776 21.7707 32.1977 19.9801C32.8553 13.1606 31.0745 7.25031 27.4904 2.00996ZM11.2388 16.3611C9.6772 16.3611 8.38704 14.944 8.38704 13.2005C8.38704 11.457 9.63237 10.0274 11.2339 10.0274C12.8354 10.0274 14.1156 11.457 14.0882 13.2005C14.0608 14.944 12.8304 16.3611 11.2388 16.3611ZM21.7594 16.3611C20.1953 16.3611 18.9101 14.944 18.9101 13.2005C18.9101 11.457 20.1554 10.0274 21.7594 10.0274C23.3634 10.0274 24.6336 11.457 24.6062 13.2005C24.5788 14.944 23.3509 16.3611 21.7594 16.3611Z" fill="#655AE1"></path> </g> <defs> <clipPath id="clip0_6927_27460"> <rect width="31.6663" height="24" fill="white" transform="translate(0.666016)"></rect> </clipPath> </defs> </svg> 