<svg width="664" height="115" viewBox="0 0 664 115" fill="none" xmlns="http://www.w3.org/2000/svg">
<path d="M112.42 60.4067L61.6116 111.645C59.5306 113.743 56.1581 113.743 54.0771 111.645L49.9416 107.474C47.8606 105.376 47.8606 101.975 49.9416 99.8762L100.747 48.6415C102.828 46.5429 106.201 46.5429 108.282 48.6415L112.417 52.8119C114.498 54.9072 114.498 58.3115 112.42 60.4067Z" fill="#655AE1"/>
<path d="M77.417 25.1077C79.498 23.0091 82.8705 23.0091 84.9515 25.1077L89.087 29.2781C91.168 31.3767 91.168 34.7777 89.087 36.8762L73.2848 52.8153C71.2038 54.9138 67.8314 54.9138 65.7504 52.8153L61.6149 48.6448C59.5339 46.5462 59.5339 43.1453 61.6149 41.0467L77.417 25.1077Z" fill="#655AE1"/>
<path d="M38.2749 88.1109C36.194 90.2095 32.8215 90.2095 30.7405 88.1109L26.605 83.9405C24.524 81.8419 24.524 78.4409 26.605 76.3424L42.4072 60.4034C44.4881 58.3048 47.8606 58.3048 49.9416 60.4034L54.0771 64.5738C56.1581 66.6724 56.1581 70.0733 54.0771 72.1719L38.2749 88.1109Z" fill="#655AE1"/>
<path d="M65.7504 13.3425L14.9416 64.5805C12.8607 66.679 9.48816 66.679 7.40719 64.5805L3.27167 60.4067C1.19069 58.3081 1.19069 54.9072 3.27167 52.8086L54.0804 1.57392C56.1614 -0.524638 59.5339 -0.524638 61.6149 1.57392L65.7504 5.74437C67.8281 7.84293 67.8281 11.2472 65.7504 13.3425Z" fill="#655AE1"/>
<path d="M184.049 24.9836H197.471V80.085H184.049V57.2438H162.778V80.085H149.356V24.9836H162.778V47.0399H184.049V24.9836ZM225.469 80.6344C219.085 80.6344 213.852 78.5936 209.771 74.512C205.689 70.3781 203.648 64.9099 203.648 58.1072C203.648 51.3046 205.663 45.8886 209.692 41.8594C213.774 37.8301 219.033 35.8155 225.469 35.8155C231.905 35.8155 237.243 37.804 241.481 41.7809C245.72 45.7578 247.839 51.2784 247.839 58.3427C247.839 59.8602 247.734 61.2731 247.525 62.5813H217.384C217.646 64.5174 218.509 66.1134 219.974 67.3693C221.44 68.5728 223.009 69.1746 224.684 69.1746C226.411 69.1746 227.693 69.0176 228.53 68.7036C229.367 68.3373 229.969 67.9972 230.335 67.6832C230.754 67.3169 231.277 66.7413 231.905 65.9564H246.426C245.17 70.352 242.659 73.9103 238.891 76.6313C235.123 79.3 230.649 80.6344 225.469 80.6344ZM233.868 54.1826C233.658 52.1418 232.769 50.4935 231.199 49.2376C229.629 47.9294 227.771 47.2753 225.626 47.2753C223.48 47.2753 221.675 47.9294 220.21 49.2376C218.745 50.4935 217.829 52.1418 217.463 54.1826H233.868ZM265.565 79.2215L248.533 36.2865H263.76L273.493 64.936L284.168 36.2865H298.218L270.275 100.964H256.225L265.565 79.2215ZM335.394 24.8266V35.0306H315.457V46.8829H333.039V57.0868H315.457V69.881H335.394V80.085H302.035V24.8266H335.394ZM339.025 36.2865H353.311L363.279 68.8606L373.248 36.2865H387.533L371.992 80.085H354.567L339.025 36.2865ZM409.98 80.6344C403.596 80.6344 398.363 78.5936 394.282 74.512C390.2 70.3781 388.159 64.9099 388.159 58.1072C388.159 51.3046 390.174 45.8886 394.203 41.8594C398.285 37.8301 403.544 35.8155 409.98 35.8155C416.416 35.8155 421.754 37.804 425.992 41.7809C430.231 45.7578 432.35 51.2784 432.35 58.3427C432.35 59.8602 432.246 61.2731 432.036 62.5813H401.895C402.157 64.5174 403.02 66.1134 404.486 67.3693C405.951 68.5728 407.521 69.1746 409.195 69.1746C410.922 69.1746 412.204 69.0176 413.041 68.7036C413.879 68.3373 414.48 67.9972 414.847 67.6832C415.265 67.3169 415.788 66.7413 416.416 65.9564H430.937C429.682 70.352 427.17 73.9103 423.402 76.6313C419.635 79.3 415.161 80.6344 409.98 80.6344ZM418.379 54.1826C418.169 52.1418 417.28 50.4935 415.71 49.2376C414.14 47.9294 412.283 47.2753 410.137 47.2753C407.992 47.2753 406.186 47.9294 404.721 49.2376C403.256 50.4935 402.34 52.1418 401.974 54.1826H418.379ZM452.039 36.2865V44.4496C455.179 38.6936 459.365 35.8155 464.598 35.8155V49.4731H461.301C458.214 49.4731 455.885 50.2057 454.315 51.6709C452.798 53.1361 452.039 55.7001 452.039 59.3631V80.085H438.617V36.2865H452.039ZM480.989 79.2215L463.956 36.2865H479.184L488.917 64.936L499.591 36.2865H513.642L485.698 100.964H471.648L480.989 79.2215ZM543.753 66.3489C545.532 64.4651 546.422 61.744 546.422 58.1857C546.422 54.6274 545.506 51.9325 543.674 50.101C541.843 48.2172 539.671 47.2753 537.16 47.2753C534.648 47.2753 532.476 48.2172 530.645 50.101C528.866 51.9325 527.976 54.6274 527.976 58.1857C527.976 61.744 528.892 64.4651 530.723 66.3489C532.607 68.2327 534.805 69.1746 537.317 69.1746C539.828 69.1746 541.974 68.2327 543.753 66.3489ZM520.912 74.4335C516.516 70.2996 514.319 64.8575 514.319 58.1072C514.319 51.3569 516.516 45.9671 520.912 41.9379C525.307 37.8563 530.749 35.8155 537.238 35.8155C543.727 35.8155 549.143 37.8563 553.486 41.9379C557.882 45.9671 560.079 51.3569 560.079 58.1072C560.079 64.8575 557.908 70.2996 553.564 74.4335C549.221 78.5675 543.805 80.6344 537.317 80.6344C530.828 80.6344 525.36 78.5675 520.912 74.4335ZM579.806 36.2865V42.7228C582.579 38.118 587.001 35.8155 593.071 35.8155C598.095 35.8155 602.15 37.49 605.237 40.839C608.377 44.188 609.947 48.7405 609.947 54.4966V80.085H596.603V56.3019C596.603 53.4762 595.844 51.3046 594.327 49.7871C592.862 48.2172 590.821 47.4323 588.205 47.4323C585.588 47.4323 583.521 48.2172 582.004 49.7871C580.538 51.3046 579.806 53.4762 579.806 56.3019V80.085H566.384V36.2865H579.806ZM637.591 80.6344C631.207 80.6344 625.974 78.5936 621.893 74.512C617.811 70.3781 615.771 64.9099 615.771 58.1072C615.771 51.3046 617.785 45.8886 621.814 41.8594C625.896 37.8301 631.155 35.8155 637.591 35.8155C644.028 35.8155 649.365 37.804 653.604 41.7809C657.842 45.7578 659.961 51.2784 659.961 58.3427C659.961 59.8602 659.857 61.2731 659.648 62.5813H629.507C629.768 64.5174 630.632 66.1134 632.097 67.3693C633.562 68.5728 635.132 69.1746 636.806 69.1746C638.533 69.1746 639.815 69.0176 640.652 68.7036C641.49 68.3373 642.091 67.9972 642.458 67.6832C642.876 67.3169 643.4 66.7413 644.028 65.9564H658.549C657.293 70.352 654.781 73.9103 651.013 76.6313C647.246 79.3 642.772 80.6344 637.591 80.6344ZM645.99 54.1826C645.781 52.1418 644.891 50.4935 643.321 49.2376C641.751 47.9294 639.894 47.2753 637.748 47.2753C635.603 47.2753 633.798 47.9294 632.332 49.2376C630.867 50.4935 629.951 52.1418 629.585 54.1826H645.99Z" fill="#1B1E1F"/>
</svg>
