<?xml version="1.0" encoding="UTF-8"?> <svg xmlns="http://www.w3.org/2000/svg" width="24" height="24" viewBox="0 0 24 24" fill="none"> <path fill-rule="evenodd" clip-rule="evenodd" d="M24 12C24 18.6274 18.6274 24 12 24C5.37258 24 0 18.6274 0 12C0 5.37258 5.37258 0 12 0C18.6274 0 24 5.37258 24 12ZM17.5757 10.0983C17.5757 13.7675 14.686 18 9.40426 18C7.84289 18.0008 6.31417 17.5678 5 16.7525C5.22773 16.7793 5.45692 16.7929 5.68633 16.7932C6.97994 16.7952 8.23658 16.3761 9.25387 15.6034C8.65465 15.5917 8.07415 15.3995 7.59337 15.0534C7.11258 14.7074 6.75552 14.2249 6.57199 13.6731C7.00199 13.7536 7.44537 13.7373 7.86781 13.6255C7.21744 13.499 6.63247 13.1585 6.21235 12.662C5.79222 12.1655 5.56287 11.5436 5.56328 10.9021V10.8677C5.96249 11.0814 6.40853 11.2001 6.86457 11.2141C6.25712 10.8212 5.82717 10.2194 5.6621 9.53094C5.49703 8.8425 5.60923 8.11912 5.9759 7.50781C6.69732 8.36517 7.59702 9.06636 8.61666 9.56591C9.6363 10.0655 10.7531 10.3522 11.8947 10.4076C11.7523 9.81214 11.8168 9.18788 12.0781 8.63135C12.3394 8.07482 12.783 7.61703 13.3403 7.32876C13.8977 7.04049 14.5377 6.93779 15.1615 7.03654C15.7852 7.13529 16.358 7.43 16.7912 7.87508C17.4341 7.75212 18.0507 7.5242 18.6145 7.20109C18.3995 7.84398 17.9507 8.3897 17.3514 8.73707C17.9206 8.67313 18.4765 8.52603 19 8.30079C18.6147 8.85864 18.1296 9.34556 17.5675 9.73867C17.5729 9.85766 17.5757 9.97929 17.5757 10.0983Z" fill="#655AE1"></path> </svg> 